<svg width="12" height="12" viewBox="0 0 12 12" fill="none" xmlns="http://www.w3.org/2000/svg">
<g clip-path="url(#clip0_619_66371)">
<path d="M2.60119 1.54949C3.97688 2.55508 5.45681 4.59373 6 5.68774V8.57729C6 8.51583 5.97562 8.58535 5.92312 8.73509C5.63962 9.54578 4.53225 12.7099 2.00007 10.1804C0.66675 8.84858 1.284 7.5168 3.711 7.11471C2.32257 7.34469 0.761625 6.96461 0.333375 5.47451C0.21 5.04586 0 2.40553 0 2.04892C0 0.262623 1.60857 0.824094 2.60119 1.54949ZM9.39883 1.54949C8.02312 2.55508 6.54319 4.59373 6 5.68774V8.57729C6 8.51583 6.02438 8.58535 6.07688 8.73509C6.36038 9.54578 7.46775 12.7099 9.99994 10.1804C11.3332 8.84858 10.716 7.5168 8.289 7.11471C9.6774 7.34469 11.2383 6.96461 11.6667 5.47451C11.79 5.04586 12 2.40553 12 2.04892C12 0.262623 10.3917 0.824094 9.39883 1.54949Z" fill="#00FF6F"/>
</g>
<defs>
<clipPath id="clip0_619_66371">
<rect width="12" height="12" fill="white"/>
</clipPath>
</defs>
</svg>
