<svg width="12" height="12" viewBox="0 0 12 12" fill="none" xmlns="http://www.w3.org/2000/svg">
<g clip-path="url(#clip0_619_66364)">
<mask id="mask0_619_66364" style="mask-type:luminance" maskUnits="userSpaceOnUse" x="-1" y="0" width="13" height="12">
<path d="M11.9971 0H-0.00292969V12H11.9971V0Z" fill="white"/>
</mask>
<g mask="url(#mask0_619_66364)">
<path d="M5.902 0C6.99013 0 7.99365 0.273936 8.9126 0.821809C9.83145 1.36968 10.5591 2.11303 11.0953 3.05187C11.6316 3.99069 11.8997 5.01596 11.8997 6.12766C11.8997 7.46277 11.5183 8.66357 10.7556 9.73003C9.99286 10.7966 9.00757 11.5346 7.79972 11.9441C7.65915 11.9708 7.55502 11.9522 7.48734 11.8883C7.41966 11.8245 7.38581 11.7447 7.38581 11.6489C7.38581 11.633 7.38711 11.4295 7.38972 11.0385C7.39233 10.6476 7.39363 10.2899 7.39363 9.9654C7.39363 9.44949 7.25826 9.07183 6.98753 8.83243C7.28429 8.80054 7.55112 8.75263 7.78801 8.68886C8.0249 8.625 8.26959 8.52128 8.5221 8.37766C8.7746 8.23404 8.98545 8.05719 9.15465 7.84707C9.32385 7.63697 9.46185 7.35771 9.56857 7.00931C9.67528 6.66091 9.72868 6.26064 9.72868 5.80851C9.72868 5.17553 9.52306 4.62766 9.11171 4.16489C9.30431 3.68085 9.28357 3.1383 9.04923 2.53724C8.90343 2.48937 8.69257 2.51862 8.41667 2.625C8.14073 2.73138 7.90125 2.84841 7.6982 2.97606L7.40144 3.16755C6.91725 3.02925 6.41744 2.96011 5.902 2.96011C5.38658 2.96011 4.88677 3.02925 4.40258 3.16755C4.31928 3.10905 4.20864 3.03723 4.07067 2.95213C3.93271 2.86702 3.71535 2.76463 3.41858 2.64495C3.12182 2.52526 2.90055 2.48937 2.75477 2.53724C2.52049 3.1383 2.49966 3.68085 2.69229 4.16489C2.28099 4.62766 2.07534 5.17553 2.07534 5.80851C2.07534 6.26064 2.12871 6.65957 2.23544 7.00532C2.34217 7.35106 2.47883 7.63032 2.64543 7.84309C2.81204 8.05585 3.0216 8.23404 3.27411 8.37766C3.52661 8.52128 3.77131 8.625 4.0082 8.68886C4.24509 8.75263 4.51191 8.80054 4.80867 8.83243C4.60563 9.02391 4.47807 9.29786 4.42601 9.65426C4.31667 9.70749 4.19953 9.74734 4.07458 9.77391C3.94963 9.80057 3.80125 9.81386 3.62943 9.81386C3.45763 9.81386 3.28712 9.75669 3.11792 9.64226C2.94871 9.52791 2.80423 9.36171 2.68449 9.14366C2.58556 8.97343 2.45931 8.83509 2.30572 8.72871C2.15214 8.62234 2.02328 8.55851 1.91915 8.53724L1.76296 8.5133C1.65363 8.5133 1.57814 8.52526 1.53649 8.5492C1.49483 8.57314 1.48182 8.60374 1.49744 8.64094C1.51305 8.67823 1.53649 8.71543 1.56772 8.75263C1.59897 8.78991 1.63281 8.8218 1.66925 8.84837L1.72391 8.88832C1.83845 8.94146 1.95169 9.04251 2.06363 9.19149C2.17557 9.34046 2.25757 9.47606 2.30963 9.59837L2.38773 9.78189C2.45541 9.98409 2.56995 10.1476 2.73135 10.2726C2.89274 10.3976 3.06715 10.4774 3.25458 10.512C3.44201 10.5465 3.62293 10.5651 3.79734 10.5678C3.97175 10.5705 4.11623 10.5612 4.23077 10.5399L4.41039 10.508C4.41039 10.7101 4.41169 10.9455 4.41429 11.2141C4.4169 11.4827 4.41819 11.6277 4.41819 11.6489C4.41819 11.7447 4.38435 11.8245 4.31667 11.8883C4.24899 11.9522 4.14487 11.9708 4.0043 11.9441C2.79642 11.5346 1.81112 10.7966 1.04839 9.73003C0.285662 8.66357 -0.0957031 7.46277 -0.0957031 6.12766C-0.0957031 5.01596 0.172424 3.99069 0.708677 3.05187C1.24493 2.11303 1.97252 1.36968 2.89143 0.821809C3.81036 0.273936 4.81388 0 5.902 0ZM2.17687 8.80054C2.19249 8.76326 2.17426 8.73137 2.1222 8.7048C2.07014 8.68886 2.0363 8.69417 2.02068 8.72074C2.00505 8.75794 2.02328 8.78991 2.07534 8.81649C2.1222 8.84837 2.15604 8.84306 2.17687 8.80054ZM2.41896 9.07183C2.45541 9.04517 2.4502 9.00266 2.40334 8.94411C2.35128 8.89629 2.30963 8.88831 2.27839 8.9202C2.24194 8.94677 2.24715 8.98937 2.29401 9.04791C2.34607 9.10106 2.38773 9.10903 2.41896 9.07183ZM2.65324 9.43089C2.7001 9.3936 2.7001 9.34311 2.65324 9.27926C2.61159 9.21009 2.56734 9.19414 2.52049 9.23134C2.47363 9.258 2.47363 9.30583 2.52049 9.375C2.56734 9.44417 2.61159 9.46277 2.65324 9.43089ZM2.98125 9.76594C3.02289 9.72343 3.01249 9.67286 2.95001 9.6144C2.88753 9.55054 2.83547 9.54257 2.79381 9.5904C2.74696 9.633 2.75738 9.68349 2.82506 9.74203C2.88753 9.80589 2.9396 9.81386 2.98125 9.76594ZM3.42639 9.9654C3.44201 9.90694 3.40816 9.86434 3.32487 9.83777C3.24677 9.81651 3.19731 9.83511 3.17649 9.89366C3.15566 9.95211 3.1895 9.99206 3.27801 10.0133C3.3561 10.0452 3.40557 10.0293 3.42639 9.9654ZM3.91839 10.0053C3.91839 9.93617 3.87413 9.90694 3.78562 9.91757C3.70233 9.91757 3.66068 9.9468 3.66068 10.0053C3.66068 10.0744 3.70493 10.1037 3.79344 10.0931C3.87674 10.0931 3.91839 10.0638 3.91839 10.0053ZM4.37134 9.92554C4.36093 9.867 4.31407 9.84309 4.23077 9.85371C4.14747 9.86966 4.11102 9.9096 4.12143 9.97337C4.13185 10.0372 4.17871 10.0585 4.26201 10.0372C4.34531 10.016 4.38176 9.97869 4.37134 9.92554Z" fill="#00FF6F"/>
</g>
</g>
<defs>
<clipPath id="clip0_619_66364">
<rect width="12" height="12" fill="white"/>
</clipPath>
</defs>
</svg>
