<svg width="12" height="12" viewBox="0 0 12 12" fill="none" xmlns="http://www.w3.org/2000/svg">
<g clip-path="url(#clip0_530_207)">
<mask id="mask0_530_207" style="mask-type:luminance" maskUnits="userSpaceOnUse" x="-1" y="0" width="13" height="12">
<path d="M11.9973 0H-0.00268555V12H11.9973V0Z" fill="white"/>
</mask>
<g mask="url(#mask0_530_207)">
<path d="M5.90249 0C6.99062 0 7.99414 0.273936 8.91309 0.821809C9.83194 1.36968 10.5596 2.11303 11.0958 3.05187C11.6321 3.99069 11.9002 5.01596 11.9002 6.12766C11.9002 7.46277 11.5188 8.66357 10.7561 9.73003C9.99334 10.7966 9.00806 11.5346 7.80021 11.9441C7.65963 11.9708 7.55551 11.9522 7.48783 11.8883C7.42015 11.8245 7.3863 11.7447 7.3863 11.6489C7.3863 11.633 7.3876 11.4295 7.39021 11.0385C7.39281 10.6476 7.39412 10.2899 7.39412 9.9654C7.39412 9.44949 7.25875 9.07183 6.98802 8.83243C7.28478 8.80054 7.55161 8.75263 7.7885 8.68886C8.02539 8.625 8.27008 8.52128 8.52259 8.37766C8.77509 8.23404 8.98594 8.05719 9.15514 7.84707C9.32434 7.63697 9.46234 7.35771 9.56906 7.00931C9.67577 6.66091 9.72917 6.26064 9.72917 5.80851C9.72917 5.17553 9.52354 4.62766 9.1122 4.16489C9.3048 3.68085 9.28406 3.1383 9.04971 2.53724C8.90391 2.48937 8.69306 2.51862 8.41716 2.625C8.14122 2.73138 7.90173 2.84841 7.69869 2.97606L7.40193 3.16755C6.91773 3.02925 6.41793 2.96011 5.90249 2.96011C5.38707 2.96011 4.88726 3.02925 4.40307 3.16755C4.31977 3.10905 4.20913 3.03723 4.07116 2.95213C3.9332 2.86702 3.71583 2.76463 3.41907 2.64495C3.12231 2.52526 2.90103 2.48937 2.75526 2.53724C2.52098 3.1383 2.50015 3.68085 2.69278 4.16489C2.28148 4.62766 2.07583 5.17553 2.07583 5.80851C2.07583 6.26064 2.12919 6.65957 2.23593 7.00532C2.34266 7.35106 2.47932 7.63032 2.64592 7.84309C2.81253 8.05585 3.02209 8.23404 3.27459 8.37766C3.5271 8.52128 3.7718 8.625 4.00869 8.68886C4.24557 8.75263 4.5124 8.80054 4.80916 8.83243C4.60611 9.02391 4.47856 9.29786 4.4265 9.65426C4.31716 9.70749 4.20002 9.74734 4.07507 9.77391C3.95012 9.80057 3.80174 9.81386 3.62992 9.81386C3.45812 9.81386 3.28761 9.75669 3.11841 9.64226C2.9492 9.52791 2.80472 9.36171 2.68497 9.14366C2.58605 8.97343 2.4598 8.83509 2.30621 8.72871C2.15263 8.62234 2.02377 8.55851 1.91964 8.53724L1.76345 8.5133C1.65411 8.5133 1.57863 8.52526 1.53698 8.5492C1.49532 8.57314 1.48231 8.60374 1.49793 8.64094C1.51354 8.67823 1.53698 8.71543 1.56821 8.75263C1.59945 8.78991 1.63329 8.8218 1.66974 8.84837L1.7244 8.88832C1.83894 8.94146 1.95218 9.04251 2.06412 9.19149C2.17605 9.34046 2.25806 9.47606 2.31012 9.59837L2.38821 9.78189C2.45589 9.98409 2.57043 10.1476 2.73183 10.2726C2.89323 10.3976 3.06764 10.4774 3.25507 10.512C3.4425 10.5465 3.62342 10.5651 3.79783 10.5678C3.97224 10.5705 4.11672 10.5612 4.23126 10.5399L4.41087 10.508C4.41087 10.7101 4.41218 10.9455 4.41478 11.2141C4.41739 11.4827 4.41868 11.6277 4.41868 11.6489C4.41868 11.7447 4.38484 11.8245 4.31716 11.8883C4.24948 11.9522 4.14536 11.9708 4.00479 11.9441C2.79691 11.5346 1.81161 10.7966 1.04888 9.73003C0.28615 8.66357 -0.0952148 7.46277 -0.0952148 6.12766C-0.0952148 5.01596 0.172912 3.99069 0.709166 3.05187C1.24542 2.11303 1.97301 1.36968 2.89192 0.821809C3.81085 0.273936 4.81437 0 5.90249 0ZM2.17736 8.80054C2.19297 8.76326 2.17475 8.73137 2.12269 8.7048C2.07063 8.68886 2.03679 8.69417 2.02117 8.72074C2.00554 8.75794 2.02377 8.78991 2.07583 8.81649C2.12269 8.84837 2.15653 8.84306 2.17736 8.80054ZM2.41945 9.07183C2.45589 9.04517 2.45069 9.00266 2.40383 8.94411C2.35177 8.89629 2.31012 8.88831 2.27888 8.9202C2.24243 8.94677 2.24764 8.98937 2.29449 9.04791C2.34656 9.10106 2.38821 9.10903 2.41945 9.07183ZM2.65373 9.43089C2.70059 9.3936 2.70059 9.34311 2.65373 9.27926C2.61208 9.21009 2.56783 9.19414 2.52098 9.23134C2.47412 9.258 2.47412 9.30583 2.52098 9.375C2.56783 9.44417 2.61208 9.46277 2.65373 9.43089ZM2.98173 9.76594C3.02338 9.72343 3.01298 9.67286 2.9505 9.6144C2.88802 9.55054 2.83596 9.54257 2.7943 9.5904C2.74745 9.633 2.75787 9.68349 2.82555 9.74203C2.88802 9.80589 2.94009 9.81386 2.98173 9.76594ZM3.42687 9.9654C3.4425 9.90694 3.40865 9.86434 3.32535 9.83777C3.24726 9.81651 3.1978 9.83511 3.17697 9.89366C3.15615 9.95211 3.18999 9.99206 3.27849 10.0133C3.35659 10.0452 3.40605 10.0293 3.42687 9.9654ZM3.91887 10.0053C3.91887 9.93617 3.87462 9.90694 3.78611 9.91757C3.70281 9.91757 3.66117 9.9468 3.66117 10.0053C3.66117 10.0744 3.70542 10.1037 3.79393 10.0931C3.87723 10.0931 3.91887 10.0638 3.91887 10.0053ZM4.37183 9.92554C4.36142 9.867 4.31456 9.84309 4.23126 9.85371C4.14795 9.86966 4.11151 9.9096 4.12192 9.97337C4.13234 10.0372 4.1792 10.0585 4.26249 10.0372C4.3458 10.016 4.38225 9.97869 4.37183 9.92554Z" fill="black"/>
</g>
</g>
<defs>
<clipPath id="clip0_530_207">
<rect width="12" height="12" fill="white"/>
</clipPath>
</defs>
</svg>
