<svg width="12" height="12" viewBox="0 0 12 12" fill="none" xmlns="http://www.w3.org/2000/svg">
<path d="M6 0C8.39664 0 9.59486 0.000245758 10.458 0.571289C10.8435 0.826325 11.1737 1.15655 11.4287 1.54199C11.9998 2.40514 12 3.60336 12 6C12 8.39664 11.9998 9.59486 11.4287 10.458C11.1737 10.8435 10.8435 11.1737 10.458 11.4287C9.59486 11.9998 8.39664 12 6 12C3.60336 12 2.40514 11.9998 1.54199 11.4287C1.15655 11.1737 0.826325 10.8435 0.571289 10.458C0.000245758 9.59486 0 8.39664 0 6C0 3.60336 0.000245908 2.40514 0.571289 1.54199C0.826325 1.15655 1.15655 0.826325 1.54199 0.571289C2.40514 0.000245908 3.60336 0 6 0ZM6 2.89355C4.2845 2.89355 2.89364 4.28452 2.89355 6C2.89355 7.71555 4.28445 9.10645 6 9.10645C7.7155 9.10639 9.10645 7.71551 9.10645 6C9.10636 4.28456 7.71545 2.89361 6 2.89355ZM6 3.94434C7.13503 3.94439 8.05558 4.86497 8.05566 6C8.05566 7.1351 7.13508 8.05561 6 8.05566C4.86487 8.05566 3.94434 7.13513 3.94434 6C3.94442 4.86494 4.86492 3.94434 6 3.94434ZM9.22852 2.00781C8.82557 2.00799 8.49902 2.33529 8.49902 2.73828C8.49927 3.14106 8.82572 3.46759 9.22852 3.46777C9.63146 3.46777 9.95873 3.14117 9.95898 2.73828C9.95898 2.33518 9.63162 2.00781 9.22852 2.00781Z" fill="#00FF6F"/>
</svg>
