<svg width="12" height="12" viewBox="0 0 12 12" fill="none" xmlns="http://www.w3.org/2000/svg">
<path d="M0 1.61333C0 1.22852 0.135139 0.911059 0.405405 0.660947C0.675672 0.410823 1.02703 0.285767 1.45946 0.285767C1.88417 0.285767 2.2278 0.408895 2.49035 0.655175C2.76061 0.909143 2.89575 1.24006 2.89575 1.64796C2.89575 2.01737 2.76448 2.3252 2.50193 2.57148C2.23166 2.82545 1.87645 2.95243 1.43629 2.95243H1.42471C0.999996 2.95243 0.656375 2.82545 0.393822 2.57148C0.13127 2.31751 0 1.99812 0 1.61333ZM0.150579 11.7143V4.00294H2.72201V11.7143H0.150579ZM4.14672 11.7143H6.71815V7.40842C6.71815 7.13905 6.74904 6.93126 6.81081 6.78504C6.91891 6.52337 7.08301 6.30211 7.30309 6.12126C7.52317 5.9404 7.79922 5.84998 8.13127 5.84998C8.99614 5.84998 9.42857 6.43102 9.42857 7.59312V11.7143H12V7.29298C12 6.15397 11.7297 5.29009 11.1892 4.70135C10.6486 4.1126 9.93437 3.81823 9.04633 3.81823C8.05019 3.81823 7.27413 4.24536 6.71815 5.09962V5.12271H6.70656L6.71815 5.09962V4.00294H4.14672C4.16216 4.24921 4.16988 5.01495 4.16988 6.30019C4.16988 7.58542 4.16216 9.39013 4.14672 11.7143Z" fill="black"/>
</svg>
