<svg width="94" height="36" viewBox="0 0 94 36" fill="none" xmlns="http://www.w3.org/2000/svg">
<path d="M79.1165 7.6901C71.5467 7.6901 64.6327 13.5853 64.6327 21.8028C64.6327 30.0205 71.5467 35.9156 79.1165 35.9156C86.7456 35.9156 93.6 30.0205 93.6 21.8028C93.6 13.5853 86.7457 7.6901 79.1165 7.6901ZM79.1217 32.598C75.486 32.598 72.3216 28.5914 72.3216 21.8029C72.3216 15.0742 75.4819 10.9962 79.1178 10.9962C82.8132 10.9962 85.9708 15.0146 85.9708 21.8029C85.9708 28.5913 82.8172 32.598 79.1217 32.598Z" fill="white"/>
<path d="M26.4258 0.261675C26.9828 3.05461 26.9827 5.93022 26.4257 8.72306C26.3896 8.90386 26.5775 9.0457 26.7396 8.95825L35.0223 4.49237L26.7398 0.0265731C26.5777 -0.0609609 26.3898 0.0807945 26.4258 0.261675Z" fill="white"/>
<path d="M38.0858 35.5685H26.7165C26.4867 35.5685 26.4035 35.259 26.6054 35.1519C27.711 34.5569 28.5591 33.5772 28.9593 32.4069C29.1259 31.9905 29.217 31.5421 29.217 31.0781V17.6981C29.217 16.4527 28.6423 15.2706 27.6595 14.5009L26.2953 13.4318C26.1724 13.3355 26.1887 13.1446 26.3261 13.0705L31.3252 10.3755L35.2703 8.25043C35.4145 8.17279 35.5893 8.27733 35.5893 8.44112V30.8758C35.5893 31.4351 35.6883 31.9746 35.8706 32.4743C36.2787 33.6128 37.1109 34.5648 38.1887 35.148C38.3949 35.259 38.3195 35.5685 38.0858 35.5685Z" fill="white"/>
<path d="M65.9927 8.28496L65.4062 8.28105H56.7594C56.5175 8.28105 56.4501 8.60629 56.6682 8.70953C57.1754 8.9553 57.6152 9.26874 57.9838 9.62972C59.5095 11.1252 59.8067 13.4776 58.6655 15.5601L58.6536 15.5839C58.6218 15.6592 58.396 16.151 58.0512 16.885C56.9852 19.1618 54.8057 23.7713 53.8864 25.707L48.6316 14.6597C47.7161 12.4421 48.7821 9.85189 50.8032 8.70155C51.0054 8.58651 50.9261 8.28105 50.6962 8.28105H38.4828C38.3203 8.28105 38.2093 8.45152 38.2806 8.60239L51.0447 35.4414C51.0844 35.517 51.1597 35.5685 51.2469 35.5685H53.4185C53.5017 35.5685 53.5771 35.5209 53.6129 35.4455C54.2349 34.1166 55.079 32.3157 56.0458 30.2529C56.672 28.9162 57.3497 27.4722 58.0511 25.9729C61.0469 19.5864 64.4748 12.2755 66.1948 8.60239C66.266 8.4556 66.1552 8.28496 65.9927 8.28496Z" fill="white"/>
<path d="M0.00665621 22.2661C-0.0352038 20.7108 -0.0145771 15.388 4.40594 11.2848C7.43624 8.47189 10.9923 7.92699 12.3296 7.73527C17.4936 6.995 21.5221 9.18205 23.0683 10.1215C23.2636 10.2402 23.3814 10.4526 23.3814 10.6812V17.4698C23.3814 17.6851 23.103 17.767 22.9841 17.5877C21.7197 15.6803 20.3389 14.3129 18.7592 13.4852C17.5483 12.8507 16.2205 12.5334 14.7388 12.5334C10.4715 12.5334 6.71162 15.5614 6.71162 20.5899C6.71162 26.105 10.9035 29.7278 16.4673 29.7278C19.18 29.7278 21.8028 28.7812 23.5128 26.8053C23.6537 26.6423 23.922 26.7606 23.8939 26.9743C23.1145 32.9117 19.2381 36 13.1722 36C5.28596 36 0.229303 30.5358 0.00665621 22.2661Z" fill="white"/>
</svg>
