<svg width="128" height="50" viewBox="0 0 128 50" fill="none" xmlns="http://www.w3.org/2000/svg">
<path d="M108.194 10.6807C97.8418 10.6807 88.3867 18.8685 88.3867 30.2817C88.3867 41.6951 97.8418 49.8827 108.194 49.8827C118.627 49.8827 128 41.6951 128 30.2817C128 18.8685 118.627 10.6807 108.194 10.6807ZM108.201 45.2749C103.229 45.2749 98.9014 39.7102 98.9014 30.2818C98.9014 20.9363 103.223 15.2724 108.195 15.2724C113.249 15.2724 117.567 20.8536 117.567 30.2818C117.567 39.7101 113.254 45.2749 108.201 45.2749Z" fill="#00FF6F"/>
<path d="M36.1377 0.363437C36.8994 4.24251 36.8993 8.23641 36.1375 12.1154C36.0882 12.3665 36.3451 12.5635 36.5669 12.442L47.8936 6.2394L36.5671 0.0369071C36.3454 -0.0846679 36.0884 0.112215 36.1377 0.363437Z" fill="#00FF6F"/>
<path d="M52.083 49.4007H36.5352C36.2209 49.4007 36.1071 48.9708 36.3833 48.8221C37.8952 47.9956 39.055 46.6351 39.6022 45.0096C39.83 44.4313 39.9547 43.8085 39.9547 43.164V24.5807C39.9547 22.851 39.1688 21.2092 37.8248 20.1402L35.9592 18.6552C35.7912 18.5215 35.8134 18.2564 36.0013 18.1535L42.8377 14.4104L48.2328 11.4589C48.4299 11.3511 48.6689 11.4963 48.6689 11.7238V42.883C48.6689 43.6599 48.8044 44.4091 49.0536 45.1031C49.6117 46.6845 50.7497 48.0066 52.2236 48.8167C52.5056 48.9708 52.4026 49.4007 52.083 49.4007Z" fill="#00FF6F"/>
<path d="M90.2463 11.5069L89.4443 11.5015H77.6196C77.2888 11.5015 77.1967 11.9532 77.4949 12.0966C78.1885 12.4379 78.7899 12.8733 79.294 13.3746C81.3804 15.4516 81.7869 18.7189 80.2263 21.6112L80.2099 21.6444C80.1665 21.7489 79.8577 22.432 79.3862 23.4514C77.9284 26.6136 74.9479 33.0157 73.6907 35.7042L66.5047 20.3607C65.2528 17.2807 66.7105 13.6832 69.4744 12.0855C69.7509 11.9257 69.6424 11.5015 69.328 11.5015H52.6259C52.4037 11.5015 52.252 11.7382 52.3494 11.9478L69.8047 49.2242C69.859 49.3291 69.9619 49.4007 70.0812 49.4007H73.0509C73.1647 49.4007 73.2677 49.3345 73.3166 49.2298C74.1674 47.3841 75.3216 44.8829 76.6438 42.0179C77.5001 40.1613 78.4268 38.1559 79.386 36.0735C83.4829 27.2033 88.1706 17.0493 90.5227 11.9478C90.6201 11.7439 90.4685 11.5069 90.2463 11.5069Z" fill="#00FF6F"/>
<path d="M0.00910251 30.9251C-0.0481419 28.765 -0.0199345 21.3723 6.02522 15.6733C10.1692 11.7665 15.0323 11.0097 16.861 10.7435C23.9229 9.71532 29.4319 12.7529 31.5464 14.0577C31.8134 14.2225 31.9746 14.5176 31.9746 14.8351V24.2637C31.9746 24.5626 31.5938 24.6764 31.4312 24.4273C29.7021 21.7782 27.8139 19.8791 25.6537 18.7295C23.9977 17.8482 22.1819 17.4076 20.1556 17.4076C14.32 17.4076 9.17829 21.613 9.17829 28.5971C9.17829 36.257 14.9108 41.2887 22.5193 41.2887C26.2291 41.2887 29.8158 39.9739 32.1543 37.2296C32.347 37.0033 32.7138 37.1675 32.6754 37.4643C31.6096 45.7108 26.3085 50 18.0133 50C7.22866 50 0.313577 42.4109 0.00910251 30.9251Z" fill="#00FF6F"/>
</svg>
