<svg width="14" height="10" viewBox="0 0 14 10" fill="none" xmlns="http://www.w3.org/2000/svg">
<path d="M7.29246 9.65328L4.58433 9.60267C3.7075 9.58503 2.82849 9.62024 1.96885 9.43752C0.661139 9.16451 0.568496 7.82591 0.471555 6.70308C0.337981 5.12452 0.389691 3.51731 0.641764 1.95192C0.784067 1.07358 1.34409 0.549465 2.21014 0.492432C5.13371 0.285448 8.07672 0.309978 10.9938 0.406543C11.3019 0.415396 11.6121 0.46378 11.9159 0.518854C13.4154 0.787466 13.452 2.3044 13.5492 3.58137C13.6461 4.87152 13.6052 6.16829 13.4199 7.44965C13.2713 8.51058 12.9868 9.40028 11.7866 9.48617C10.2828 9.59848 8.81343 9.6889 7.30536 9.66011C7.30542 9.65328 7.29676 9.65328 7.29246 9.65328ZM5.70034 6.9673C6.83361 6.30236 7.94526 5.6485 9.07205 4.98802C7.93666 4.32308 6.82713 3.66922 5.70034 3.00873V6.9673Z" fill="black"/>
</svg>
